HIERARCHY
ROOT hip
{
  OFFSET 0 0 0
  CHANNELS 6 Xposition Yposition Zposition Zrotation Yrotation Xrotation
  JOINT abdomen
  {
    OFFSET 0 20.6881 -0.73152
    CHANNELS 3 Zrotation Xrotation Yrotation
    JOINT chest
    {
      OFFSET 0 11.7043 -0.48768
      CHANNELS 3 Zrotation Xrotation Yrotation
      JOINT neck
      {
        OFFSET 0 22.1894 -2.19456
        CHANNELS 3 Zrotation Xrotation Yrotation
        JOINT head
        {
          OFFSET -0.24384 7.07133 1.2192
          CHANNELS 3 Zrotation Xrotation Yrotation
          JOINT leftEye
          {
            OFFSET 4.14528 8.04674 8.04672
            CHANNELS 3 Zrotation Xrotation Yrotation
            End Site
            {
              OFFSET 1 0 0
            }
          }
          JOINT rightEye
          {
            OFFSET -3.6576 8.04674 8.04672
            CHANNELS 3 Zrotation Xrotation Yrotation
            End Site
            {
              OFFSET 1 0 0
            }
          }
        }
      }
      JOINT rCollar
      {
        OFFSET -2.68224 19.2634 -4.8768
        CHANNELS 3 Zrotation Xrotation Yrotation
        JOINT rShldr
        {
          OFFSET -8.77824 -1.95073 1.46304
          CHANNELS 3 Zrotation Xrotation Yrotation
          JOINT rForeArm
          {
            OFFSET -28.1742 -1.7115 0.48768
            CHANNELS 3 Zrotation Xrotation Yrotation
            JOINT rHand
            {
              OFFSET -22.5879 0.773209 7.07136
              CHANNELS 3 Zrotation Xrotation Yrotation
              JOINT rThumb1
              {
                OFFSET -1.2192 -0.487915 3.41376
                CHANNELS 3 Zrotation Xrotation Yrotation
                JOINT rThumb2
                {
                  OFFSET -3.37035 -0.52449 3.41376
                  CHANNELS 3 Zrotation Xrotation Yrotation
                  End Site
                  {
                    OFFSET -1.78271 -1.18214 1.43049
                  }
                }
              }
              JOINT rIndex1
              {
                OFFSET -7.75947 0.938293 5.60832
                CHANNELS 3 Zrotation Xrotation Yrotation
                JOINT rIndex2
                {
                  OFFSET -2.54057 -0.884171 1.56538
                  CHANNELS 3 Zrotation Xrotation Yrotation
                  End Site
                  {
                    OFFSET -1.62519 -0.234802 1.16502
                  }
                }
              }
              JOINT rMid1
              {
                OFFSET -8.24714 1.18213 3.41376
                CHANNELS 3 Zrotation Xrotation Yrotation
                JOINT rMid2
                {
                  OFFSET -3.10165 -0.590103 1.0647
                  CHANNELS 3 Zrotation Xrotation Yrotation
                  End Site
                  {
                    OFFSET -2.48547 -0.328903 0.83742
                  }
                }
              }
              JOINT rRing1
              {
                OFFSET -8.82822 0.546677 1.51678
                CHANNELS 3 Zrotation Xrotation Yrotation
                JOINT rRing2
                {
                  OFFSET -2.60934 -0.819778 -0.0198488
                  CHANNELS 3 Zrotation Xrotation Yrotation
                  End Site
                  {
                    OFFSET -2.33842 -0.294052 0.168128
                  }
                }
              }
              JOINT rPinky1
              {
                OFFSET -8.27202 -0.0477905 -0.4584
                CHANNELS 3 Zrotation Xrotation Yrotation
                JOINT rPinky2
                {
                  OFFSET -1.82734 -0.647385 -0.700984
                  CHANNELS 3 Zrotation Xrotation Yrotation
                  End Site
                  {
                    OFFSET -1.69225 -0.51767 -0.607171
                  }
                }
              }
            }
          }
        }
      }
      JOINT lCollar
      {
        OFFSET 2.68224 19.2634 -4.8768
        CHANNELS 3 Zrotation Xrotation Yrotation
        JOINT lShldr
        {
          OFFSET 8.77824 -1.95073 1.46304
          CHANNELS 3 Zrotation Xrotation Yrotation
          JOINT lForeArm
          {
            OFFSET 28.1742 -1.7115 0.48768
            CHANNELS 3 Zrotation Xrotation Yrotation
            JOINT lHand
            {
              OFFSET 22.5879 0.773209 7.07136
              CHANNELS 3 Zrotation Xrotation Yrotation
              JOINT lThumb1
              {
                OFFSET 1.2192 -0.487915 3.41376
                CHANNELS 3 Zrotation Xrotation Yrotation
                JOINT lThumb2
                {
                  OFFSET 3.37035 -0.52449 3.41376
                  CHANNELS 3 Zrotation Xrotation Yrotation
                  End Site
                  {
                    OFFSET 1.78271 -1.18214 1.43049
                  }
                }
              }
              JOINT lIndex1
              {
                OFFSET 7.75947 0.938293 5.60832
                CHANNELS 3 Zrotation Xrotation Yrotation
                JOINT lIndex2
                {
                  OFFSET 2.54057 -0.884171 1.56538
                  CHANNELS 3 Zrotation Xrotation Yrotation
                  End Site
                  {
                    OFFSET 1.62519 -0.234802 1.16502
                  }
                }
              }
              JOINT lMid1
              {
                OFFSET 8.24714 1.18213 3.41376
                CHANNELS 3 Zrotation Xrotation Yrotation
                JOINT lMid2
                {
                  OFFSET 3.10165 -0.590103 1.0647
                  CHANNELS 3 Zrotation Xrotation Yrotation
                  End Site
                  {
                    OFFSET 2.48547 -0.328903 0.83742
                  }
                }
              }
              JOINT lRing1
              {
                OFFSET 8.82822 0.546677 1.51678
                CHANNELS 3 Zrotation Xrotation Yrotation
                JOINT lRing2
                {
                  OFFSET 2.60934 -0.819778 -0.0198488
                  CHANNELS 3 Zrotation Xrotation Yrotation
                  End Site
                  {
                    OFFSET 2.33842 -0.294052 0.168128
                  }
                }
              }
              JOINT lPinky1
              {
                OFFSET 8.27202 -0.0477905 -0.4584
                CHANNELS 3 Zrotation Xrotation Yrotation
                JOINT lPinky2
                {
                  OFFSET 1.82734 -0.647385 -0.700984
                  CHANNELS 3 Zrotation Xrotation Yrotation
                  End Site
                  {
                    OFFSET 1.69225 -0.51767 -0.607171
                  }
                }
              }
            }
          }
        }
      }
    }
  }
  JOINT rButtock
  {
    OFFSET -8.77824 4.35084 1.2192
    CHANNELS 3 Zrotation Xrotation Yrotation
    JOINT rThigh
    {
      OFFSET 0 -1.70687 -2.19456
      CHANNELS 3 Zrotation Xrotation Yrotation
      JOINT rShin
      {
        OFFSET 0 -36.8199 0.73152
        CHANNELS 3 Zrotation Xrotation Yrotation
        JOINT rFoot
        {
          OFFSET 0.73152 -45.1104 -5.12064
          CHANNELS 3 Zrotation Xrotation Yrotation
          End Site
          {
            OFFSET -1.1221 -3.69964 12.103
          }
        }
      }
    }
  }
  JOINT lButtock
  {
    OFFSET 8.77824 4.35084 1.2192
    CHANNELS 3 Zrotation Xrotation Yrotation
    JOINT lThigh
    {
      OFFSET 0 -1.70687 -2.19456
      CHANNELS 3 Zrotation Xrotation Yrotation
      JOINT lShin
      {
        OFFSET 0 -36.8199 0.73152
        CHANNELS 3 Zrotation Xrotation Yrotation
        JOINT lFoot
        {
          OFFSET -0.73152 -45.1104 -5.12064
          CHANNELS 3 Zrotation Xrotation Yrotation
          End Site
          {
            OFFSET 1.1221 -3.69964 12.103
          }
        }
      }
    }
  }
}
MOTION
Frames:	9
Frame Time:	0.00833333
-49.0378 82.1859 16.1365 -11.4348 90.4617 -3.3695 -0.604107 5.03958 -0.292928 4.40775 -2.98743 0.0439995 -5.36298 -0.0511974 1.16423 -7.32886 20.1788 7.60797 -0.0 0.0 0.0 -0.0 0.0 0.0 -6.34938e-15 1.75078e-13 -1.88356e-14 72.857 11.0205 -0.808597 -15.1078 -7.88411 27.8106 -0.653865 22.3437 3.31142 -2.1246e-10 -2.68061e-10 4.6846e-10 -3.5704e-10 -4.5992e-10 8.12813e-10 -2.12459e-10 -2.68052e-10 4.68462e-10 7.73091 5.47488 0.417314 -2.12461e-10 -2.68054e-10 4.68463e-10 2.90554 0.965183 0.102902 -2.12451e-10 -2.68059e-10 4.68462e-10 10.2786 0.731801 0.0259123 -2.12465e-10 -2.68057e-10 4.68462e-10 2.22167 -0.733487 -0.20892 -6.27405e-15 1.75111e-13 -1.90728e-14 -77.4142 25.2954 -5.67463 17.6061 -10.2696 -33.1416 0.0814868 8.11907 -1.14883 -7.32702e-10 1.36048e-10 -5.58503e-10 -1.27191e-09 2.3907e-10 -9.60681e-10 -7.32703e-10 1.36054e-10 -5.58499e-10 -7.73091 5.47488 -0.417314 -7.32701e-10 1.36055e-10 -5.58508e-10 -2.90554 0.965183 -0.102902 -7.32703e-10 1.36054e-10 -5.58501e-10 -10.2786 0.731801 -0.0259123 -7.32696e-10 1.36053e-10 -5.58509e-10 -2.22167 -0.733487 0.20892 -2.03217e-16 0.0 -3.88251e-19 -7.70733 -32.5934 -22.4388 -0.218254 37.1068 1.17973 -12.9601 -18.8159 -27.1512 2.03217e-16 0.0 3.88251e-19 -2.55841 -17.7229 3.51837 0.0347467 29.7645 -0.777662 2.90927 -16.3594 6.75211
-49.2341 82.1653 16.0779 -13.2392 91.0492 -5.277 -1.07586 5.28011 -0.0660846 4.46707 -3.0214 0.104845 -5.42869 0.0272955 1.0229 -6.92194 20.213 7.29143 -0.0 0.0 0.0 -0.0 0.0 0.0 -2.426e-15 -1.28147e-13 1.83876e-14 73.1471 10.8593 -0.505394 -15.0611 -7.84331 27.7145 -0.667007 22.5474 3.34512 -5.5821e-10 -7.96064e-10 1.26251e-09 -9.4115e-10 -1.37021e-09 2.19131e-09 -5.5821e-10 -7.96056e-10 1.26251e-09 7.73091 5.47488 0.417314 -5.5821e-10 -7.96057e-10 1.26251e-09 2.90554 0.965183 0.102902 -5.58201e-10 -7.96064e-10 1.26251e-09 10.2786 0.731801 0.0259123 -5.58214e-10 -7.96063e-10 1.26251e-09 2.22167 -0.733487 -0.20892 -2.34519e-15 -1.28111e-13 1.81888e-14 -77.0359 25.4429 -5.82292 17.7073 -10.3754 -33.3669 0.0757689 7.82897 -1.10726 -1.19855e-09 2.10906e-10 -1.02728e-09 -2.08145e-09 3.70993e-10 -1.76805e-09 -1.19855e-09 2.10912e-10 -1.02727e-09 -7.73091 5.47488 -0.417314 -1.19855e-09 2.10912e-10 -1.02729e-09 -2.90554 0.965183 -0.102902 -1.19855e-09 2.10912e-10 -1.02728e-09 -10.2786 0.731801 -0.0259123 -1.19855e-09 2.10911e-10 -1.02729e-09 -2.22167 -0.733487 0.20892 -2.03217e-16 0.0 -3.88251e-19 -8.02257 -32.7222 -22.7567 -0.221349 37.3635 1.19001 -13.1194 -18.8982 -27.3716 2.03217e-16 0.0 3.88251e-19 -2.33423 -18.054 4.03971 0.0418511 30.1021 -0.77871 2.52055 -16.4643 5.56263
-49.4479 82.1144 15.9098 -26.6757 91.6166 -18.7571 -1.72126 5.36173 0.0274577 4.66463 -2.92668 0.122674 -5.7111 0.122722 0.930195 -6.51071 20.1688 7.11839 -0.0 0.0 0.0 -0.0 0.0 0.0 2.44577e-14 -2.01951e-13 4.56172e-14 73.1821 11.1629 -0.106519 -15.0434 -7.82754 27.6787 -0.66288 22.4814 3.33425 -7.22362e-10 -1.11473e-09 1.83485e-09 -1.21557e-09 -1.91832e-09 3.18331e-09 -7.22361e-10 -1.11473e-09 1.83485e-09 7.73091 5.47488 0.417314 -7.22362e-10 -1.11473e-09 1.83485e-09 2.90554 0.965183 0.102902 -7.22353e-10 -1.11473e-09 1.83485e-09 10.2786 0.731801 0.0259123 -7.22367e-10 -1.11473e-09 1.83486e-09 2.22167 -0.733487 -0.20892 2.4482e-14 -2.0192e-13 4.54413e-14 -76.8777 25.3283 -5.92984 17.7833 -10.4551 -33.5372 0.0701756 7.53922 -1.06578 -1.37649e-09 3.24112e-10 -1.27408e-09 -2.3908e-09 5.672e-10 -2.19439e-09 -1.37649e-09 3.24116e-10 -1.27407e-09 -7.73091 5.47488 -0.417314 -1.37648e-09 3.24116e-10 -1.27408e-09 -2.90554 0.965183 -0.102902 -1.37649e-09 3.24116e-10 -1.27407e-09 -10.2786 0.731801 -0.0259123 -1.37648e-09 3.24116e-10 -1.27408e-09 -2.22167 -0.733487 0.20892 -2.03217e-16 0.0 -3.88251e-19 -8.75352 -32.9399 -23.348 -0.22746 37.7559 1.19902 -13.1267 -18.888 -27.3773 2.03217e-16 0.0 3.88251e-19 -2.55801 -18.3036 4.18249 0.0441978 30.2396 -0.778898 2.3035 -16.4485 4.9257
-49.6776 82.0343 15.6224 -41.8953 92.3186 -33.8713 -2.50982 5.34889 0.0332741 4.95612 -2.74586 0.111635 -6.14391 0.231905 0.870138 -6.08379 20.073 7.04051 -0.0 0.0 0.0 -0.0 0.0 0.0 6.53892e-14 -1.82399e-13 7.4333e-14 73.0556 11.7575 0.356893 -15.0499 -7.83291 27.6928 -0.647299 22.2342 3.29351 -8.18666e-10 -1.39335e-09 2.39573e-09 -1.37329e-09 -2.39664e-09 4.15425e-09 -8.18662e-10 -1.39335e-09 2.39573e-09 7.73091 5.47488 0.417314 -8.18665e-10 -1.39335e-09 2.39573e-09 2.90554 0.965183 0.102902 -8.18657e-10 -1.39335e-09 2.39573e-09 10.2786 0.731801 0.0259123 -8.18672e-10 -1.39335e-09 2.39573e-09 2.22167 -0.733487 -0.20892 6.53159e-14 -1.82379e-13 7.41746e-14 -76.8596 25.0223 -6.00707 17.8376 -10.5127 -33.6581 0.0646507 7.24194 -1.02328 -1.41433e-09 4.65568e-10 -1.4242e-09 -2.45686e-09 8.11211e-10 -2.455e-09 -1.41433e-09 4.6557e-10 -1.42419e-09 -7.73091 5.47488 -0.417314 -1.41433e-09 4.6557e-10 -1.4242e-09 -2.90554 0.965183 -0.102902 -1.41433e-09 4.65569e-10 -1.4242e-09 -10.2786 0.731801 -0.0259123 -1.41432e-09 4.65569e-10 -1.4242e-09 -2.22167 -0.733487 0.20892 -2.03217e-16 0.0 -3.88251e-19 -9.77799 -33.2058 -24.1008 -0.235651 38.2412 1.20768 -13.0424 -18.8314 -27.2455 2.03217e-16 0.0 3.88251e-19 -3.0825 -18.5014 4.13191 0.0437326 30.2584 -0.778292 2.18451 -16.347 4.60295
-49.8668 81.9985 15.4217 -41.8638 92.8727 -33.7576 -3.26236 5.30865 0.0438512 5.20052 -2.54659 0.10052 -6.56962 0.341049 0.814318 -5.67404 19.9994 6.97664 -0.0 0.0 0.0 -0.0 0.0 0.0 1.0227e-13 -1.18183e-13 9.52404e-14 72.9245 12.4375 0.804956 -15.0835 -7.8622 27.762 -0.627631 21.915 3.24119 -8.44219e-10 -1.54921e-09 2.74586e-09 -1.41237e-09 -2.66375e-09 4.75976e-09 -8.44211e-10 -1.54921e-09 2.74586e-09 7.73091 5.47488 0.417314 -8.44216e-10 -1.54921e-09 2.74586e-09 2.90554 0.965183 0.102902 -8.44209e-10 -1.54921e-09 2.74585e-09 10.2786 0.731801 0.0259123 -8.44225e-10 -1.54921e-09 2.74586e-09 2.22167 -0.733487 -0.20892 1.02099e-13 -1.18175e-13 9.50917e-14 -76.8489 24.6471 -6.06954 17.8742 -10.5518 -33.7388 0.059693 6.9604 -0.983097 -1.31284e-09 5.67694e-10 -1.44113e-09 -2.28088e-09 9.86571e-10 -2.48611e-09 -1.31284e-09 5.67692e-10 -1.44113e-09 -7.73091 5.47488 -0.417314 -1.31284e-09 5.67692e-10 -1.44113e-09 -2.90554 0.965183 -0.102902 -1.31285e-09 5.67692e-10 -1.44113e-09 -10.2786 0.731801 -0.0259123 -1.31283e-09 5.67693e-10 -1.44114e-09 -2.22167 -0.733487 0.20892 -2.03217e-16 0.0 -3.88251e-19 -10.8139 -33.4545 -24.8368 -0.243996 38.717 1.21543 -12.9367 -18.7357 -27.1048 2.03217e-16 0.0 3.88251e-19 -3.67762 -18.6681 3.96285 0.0424829 30.242 -0.777593 2.12108 -16.2175 4.45047
-49.9894 81.9888 15.3628 -31.7956 93.2322 -23.7947 -3.79977 5.30809 0.151682 5.25646 -2.39657 0.118103 -6.83059 0.436365 0.734321 -5.31428 20.0222 6.84555 -0.0 0.0 0.0 -0.0 0.0 0.0 1.17003e-13 -5.79964e-14 9.90445e-14 72.9555 12.9973 1.15577 -15.1468 -7.91804 27.8913 -0.61064 21.6333 3.19524 -7.96117e-10 -1.49962e-09 2.68596e-09 -1.3309e-09 -2.57823e-09 4.65546e-09 -7.96108e-10 -1.49962e-09 2.68596e-09 7.73091 5.47488 0.417314 -7.96114e-10 -1.49962e-09 2.68596e-09 2.90554 0.965183 0.102902 -7.96108e-10 -1.49962e-09 2.68595e-09 10.2786 0.731801 0.0259123 -7.96122e-10 -1.49962e-09 2.68596e-09 2.22167 -0.733487 -0.20892 1.16776e-13 -5.79966e-14 9.88954e-14 -76.7125 24.325 -6.13215 17.8965 -10.5758 -33.7883 0.0556721 6.71787 -0.948529 -1.07276e-09 5.62907e-10 -1.28837e-09 -1.86414e-09 9.76825e-10 -2.22396e-09 -1.07277e-09 5.62904e-10 -1.28837e-09 -7.73091 5.47488 -0.417314 -1.07276e-09 5.62905e-10 -1.28837e-09 -2.90554 0.965183 -0.102902 -1.07277e-09 5.62904e-10 -1.28837e-09 -10.2786 0.731801 -0.0259123 -1.07276e-09 5.62906e-10 -1.28838e-09 -2.22167 -0.733487 0.20892 -2.03217e-16 0.0 -3.88251e-19 -11.5706 -33.627 -25.3739 -0.250472 39.0809 1.22155 -12.8788 -18.6089 -27.084 2.03217e-16 0.0 3.88251e-19 -4.11197 -18.8245 3.75065 0.0424744 30.2738 -0.777499 2.07024 -16.1163 4.32416
-50.1069 81.9922 15.2989 -23.5904 93.6394 -15.7368 -4.0308 5.37448 0.400462 5.03049 -2.31931 0.176872 -6.84726 0.513185 0.614133 -5.00185 20.1951 6.60167 -0.0 0.0 0.0 -0.0 0.0 0.0 9.50424e-14 -1.67629e-14 7.83398e-14 73.2597 13.3273 1.36777 -15.2447 -8.00433 28.0929 -0.596572 21.398 3.15696 -6.37832e-10 -1.08971e-09 1.91608e-09 -1.07072e-09 -1.87426e-09 3.32241e-09 -6.37824e-10 -1.08972e-09 1.91608e-09 7.73091 5.47488 0.417314 -6.37829e-10 -1.08972e-09 1.91608e-09 2.90554 0.965183 0.102902 -6.37825e-10 -1.08972e-09 1.91608e-09 10.2786 0.731801 0.0259123 -6.37836e-10 -1.08971e-09 1.91608e-09 2.22167 -0.733487 -0.20892 9.48234e-14 -1.67648e-14 7.81752e-14 -76.3721 24.1054 -6.2079 17.9045 -10.5841 -33.8064 0.0526076 6.52638 -0.921261 -5.64121e-10 3.91865e-10 -8.00427e-10 -9.80768e-10 6.79056e-10 -1.38275e-09 -5.64124e-10 3.91863e-10 -8.00423e-10 -7.73091 5.47488 -0.417314 -5.64121e-10 3.91863e-10 -8.00423e-10 -2.90554 0.965183 -0.102902 -5.64128e-10 3.91863e-10 -8.00425e-10 -10.2786 0.731801 -0.0259123 -5.64115e-10 3.91866e-10 -8.00433e-10 -2.22167 -0.733487 0.20892 -2.03217e-16 0.0 -3.88251e-19 -11.9319 -33.692 -25.6571 -0.254101 39.2875 1.2255 -12.8953 -18.4474 -27.2405 2.03217e-16 0.0 3.88251e-19 -4.31208 -18.9756 3.48245 0.0444904 30.3866 -0.778213 2.02795 -16.0604 4.20729
-50.2327 82.0064 15.2111 -19.4911 94.0427 -11.8081 -4.06631 5.46878 0.734599 4.61653 -2.2769 0.259872 -6.71616 0.579193 0.471718 -4.72054 20.4673 6.29552 -0.0 0.0 0.0 -0.0 0.0 0.0 4.92813e-14 3.21334e-14 3.97259e-14 73.7314 13.5557 1.49008 -15.3735 -8.11797 28.3607 -0.58238 21.1574 3.11795 -3.8283e-10 -4.07873e-10 6.24773e-10 -6.52057e-10 -7.03288e-10 1.08665e-09 -3.82825e-10 -4.07874e-10 6.24768e-10 7.73091 5.47488 0.417314 -3.82829e-10 -4.07874e-10 6.24774e-10 2.90554 0.965183 0.102902 -3.82826e-10 -4.07873e-10 6.24772e-10 10.2786 0.731801 0.0259123 -3.82832e-10 -4.0787e-10 6.24779e-10 2.22167 -0.733487 -0.20892 4.91079e-14 3.21331e-14 3.95333e-14 -75.9127 23.9175 -6.28587 17.8966 -10.5757 -33.7891 0.0501238 6.37159 -0.899225 1.70096e-10 1.04385e-10 -4.86953e-11 2.94521e-10 1.79327e-10 -8.608e-11 1.70094e-10 1.04385e-10 -4.86892e-11 -7.73091 5.47488 -0.417314 1.70097e-10 1.04385e-10 -4.86899e-11 -2.90554 0.965183 -0.102902 1.70088e-10 1.04385e-10 -4.86913e-11 -10.2786 0.731801 -0.0259123 1.701e-10 1.0439e-10 -4.87015e-11 -2.22167 -0.733487 0.20892 -2.03217e-16 0.0 -3.88251e-19 -12.06 -33.6905 -25.783 -0.255999 39.3975 1.22767 -12.9452 -18.2491 -27.4977 2.03217e-16 0.0 3.88251e-19 -4.40615 -19.1102 3.12874 0.0473752 30.5322 -0.779361 2.01385 -16.0192 4.16926
-50.3746 82.0219 15.0889 -19.5292 94.3668 -11.9167 -4.03001 5.55859 1.09762 4.15398 -2.24483 0.351701 -6.54375 0.639119 0.329628 -4.48409 20.7554 5.99035 -0.0 0.0 0.0 -0.0 0.0 0.0 2.77408e-15 1.02309e-13 -5.08454e-15 74.2163 13.8348 1.57582 -15.5229 -8.25111 28.6725 -0.569217 20.9305 3.08128 -1.03201e-10 2.63754e-10 -6.54485e-10 -1.90598e-10 4.50175e-10 -1.12872e-09 -1.03198e-10 2.63757e-10 -6.54493e-10 7.73091 5.47488 0.417314 -1.03201e-10 2.63756e-10 -6.54485e-10 2.90554 0.965183 0.102902 -1.03199e-10 2.63756e-10 -6.54485e-10 10.2786 0.731801 0.0259123 -1.032e-10 2.63759e-10 -6.54479e-10 2.22167 -0.733487 -0.20892 2.65383e-15 1.02311e-13 -5.30817e-15 -75.4461 23.703 -6.34501 17.8747 -10.5523 -33.74 0.0479722 6.23719 -0.880096 8.69678e-10 -2.03374e-10 6.48048e-10 1.50952e-09 -3.55347e-10 1.11571e-09 8.69677e-10 -2.03372e-10 6.48057e-10 -7.73091 5.47488 -0.417314 8.6968e-10 -2.03371e-10 6.48054e-10 -2.90554 0.965183 -0.102902 8.6967e-10 -2.0337e-10 6.48054e-10 -10.2786 0.731801 -0.0259123 8.6968e-10 -2.03364e-10 6.48042e-10 -2.22167 -0.733487 0.20892 -2.03217e-16 0.0 -3.88251e-19 -12.0802 -33.6748 -25.7947 -0.257257 39.4674 1.22868 -12.9958 -18.0252 -27.783 2.03217e-16 0.0 3.88251e-19 -4.46419 -19.2241 2.74024 0.0502429 30.6734 -0.780784 2.02108 -15.9782 4.19531
